<svg xmlns="http://www.w3.org/2000/svg" viewBox="0 0 46 36" fill="none">
  <defs>
    <clipPath id="top">
      <rect x="0" y="0" width="46" height="20"/>
    </clipPath>
    <clipPath id="bottom">
      <rect x="0" y="20" width="46" height="16"/>
    </clipPath>
  </defs>
  <!-- Top half: blue/indigo -->
  <g clip-path="url(#top)" fill="#4A6CF7">
    <rect x="2"  y="18" width="3" height="4"  rx="1.5"/>
    <rect x="6"  y="13" width="3" height="15" rx="1.5"/>
    <rect x="10" y="7"  width="3" height="27" rx="1.5"/>
    <rect x="14" y="3"  width="3" height="29" rx="1.5"/>
    <rect x="18" y="7"  width="3" height="20" rx="1.5"/>
    <rect x="22" y="14" width="3" height="9"  rx="1.5"/>
    <rect x="26" y="18" width="3" height="4"  rx="1.5"/>
    <rect x="30" y="18" width="3" height="5"  rx="1.5"/>
    <rect x="34" y="12" width="3" height="14" rx="1.5"/>
    <rect x="38" y="8"  width="3" height="20" rx="1.5"/>
    <rect x="42" y="16" width="3" height="7"  rx="1.5"/>
  </g>
  <!-- Bottom half: teal/cyan -->
  <g clip-path="url(#bottom)" fill="#2DD4BF">
    <rect x="2"  y="18" width="3" height="4"  rx="1.5"/>
    <rect x="6"  y="13" width="3" height="15" rx="1.5"/>
    <rect x="10" y="7"  width="3" height="27" rx="1.5"/>
    <rect x="14" y="3"  width="3" height="29" rx="1.5"/>
    <rect x="18" y="7"  width="3" height="20" rx="1.5"/>
    <rect x="22" y="14" width="3" height="9"  rx="1.5"/>
    <rect x="26" y="18" width="3" height="4"  rx="1.5"/>
    <rect x="30" y="18" width="3" height="5"  rx="1.5"/>
    <rect x="34" y="12" width="3" height="14" rx="1.5"/>
    <rect x="38" y="8"  width="3" height="20" rx="1.5"/>
    <rect x="42" y="16" width="3" height="7"  rx="1.5"/>
  </g>
</svg>
